<svg xmlns="http://www.w3.org/2000/svg" viewBox="0 0 500 500"><g id="freepik--Sidewalk--inject-2"><g id="freepik--sidewalk--inject-2"><polygon points="169.29 195.32 404.89 331.35 404.89 339.45 169.29 203.43 169.29 195.32" style="fill:#ebebeb"></polygon><polygon points="404.89 331.35 461.05 298.93 225.45 162.9 169.29 195.32 404.89 331.35" style="fill:#fafafa"></polygon><polygon points="404.89 339.45 461.05 307.03 461.05 298.93 404.89 331.35 404.89 339.45" style="fill:#e0e0e0"></polygon><polygon points="348.29 298.67 404.45 266.25 400.94 264.22 344.78 296.65 348.29 298.67" style="fill:#ebebeb"></polygon><polygon points="288.63 264.22 344.78 231.8 341.27 229.77 285.12 262.2 288.63 264.22" style="fill:#ebebeb"></polygon><polygon points="228.96 229.77 285.12 197.35 281.61 195.32 225.45 227.75 228.96 229.77" style="fill:#ebebeb"></polygon></g></g><g id="freepik--Parking--inject-2"><g id="freepik--parking--inject-2"><polygon points="404.89 339.45 246.47 430.92 10.87 294.89 169.29 203.43 404.89 339.45" style="fill:#455a64"></polygon><path d="M258.63,373.93c-7.88-4.54-7.88-11.94,0-16.49,4.33-2.5,10.16-3.62,15.84-3.37l5.31-3.77c-9.12-1.35-19.21,0-26.34,4.15-10.73,6.2-10.73,16.28,0,22.48,6.8,3.92,16.29,5.36,25.06,4.32l3.94-5.28C274.8,378.33,265.06,377.65,258.63,373.93Zm40.26,14.12c.68-1.1-.31-2.31-2.22-2.7l-7.34-1.51,9.4-12.63c.6-.8.23-1.69-.83-2.3l-16.12-9.31,4.36-3.09,12.46,7.2a5.66,5.66,0,0,0,5.16,0c1.43-.83,1.4-2.15,0-3l-13-7.49,7-5a12.56,12.56,0,0,0,10-.57c3.1-1.79,3.1-4.68,0-6.47a12.41,12.41,0,0,0-11.2,0,4.24,4.24,0,0,0-2.29,2.82l-10.87,7.7-.18.1a2.64,2.64,0,0,0-.6.46l-8.4,5.95c-1.18.84-1,2,.37,2.77l16.7,9.64-10.1,13.47a1.42,1.42,0,0,0-.11,1.74,2.65,2.65,0,0,0,.77.66,4.36,4.36,0,0,0,1.36.49l11,2.28C296.11,389.72,298.21,389.15,298.89,388.05Z" style="fill:#fff"></path><polygon points="214.58 249.68 217.34 241.7 222.86 238.51 225.63 243.3 214.58 249.68" style="fill:#407BFF"></polygon><polygon points="167.62 213 217.34 241.7 222.86 238.51 173.15 209.81 167.62 213" style="fill:#407BFF"></polygon><polygon points="167.62 213 217.34 241.7 222.86 238.51 173.15 209.81 167.62 213" style="fill:#fff;opacity:0.5"></polygon><polygon points="167.62 213 164.86 220.97 214.58 249.68 217.34 241.7 167.62 213" style="fill:#407BFF"></polygon><polygon points="167.62 213 164.86 220.97 214.58 249.68 217.34 241.7 167.62 213" style="fill:#fff;opacity:0.30000000000000004"></polygon><polygon points="171.89 218.66 170.96 221.34 187.71 231.01 188.65 228.33 171.89 218.66" style="fill:#fafafa"></polygon><polygon points="193.81 231.31 192.88 234 209.63 243.67 210.56 240.98 193.81 231.31" style="fill:#fafafa"></polygon><polygon points="237.81 250.33 95.64 332.42 99.7 334.76 241.88 252.68 237.81 250.33" style="fill:#fafafa"></polygon><polygon points="291.76 294.24 294.52 286.26 300.04 283.07 302.81 287.86 291.76 294.24" style="fill:#407BFF"></polygon><polygon points="244.8 257.56 294.52 286.26 300.04 283.07 250.32 254.37 244.8 257.56" style="fill:#407BFF"></polygon><polygon points="244.8 257.56 294.52 286.26 300.04 283.07 250.32 254.37 244.8 257.56" style="fill:#fff;opacity:0.5"></polygon><polygon points="244.8 257.56 242.04 265.53 291.76 294.24 294.52 286.26 244.8 257.56" style="fill:#407BFF"></polygon><polygon points="244.8 257.56 242.04 265.53 291.76 294.24 294.52 286.26 244.8 257.56" style="fill:#fff;opacity:0.30000000000000004"></polygon><polygon points="249.07 263.21 248.14 265.9 264.89 275.57 265.82 272.89 249.07 263.21" style="fill:#fafafa"></polygon><polygon points="270.99 275.87 270.06 278.56 286.81 288.23 287.74 285.54 270.99 275.87" style="fill:#fafafa"></polygon><polygon points="314.99 294.89 172.82 376.98 176.88 379.32 319.05 297.24 314.99 294.89" style="fill:#fafafa"></polygon><polygon points="373 341.14 375.76 333.17 381.28 329.98 384.05 334.76 373 341.14" style="fill:#407BFF"></polygon><polygon points="326.04 304.46 375.76 333.17 381.28 329.98 331.56 301.27 326.04 304.46" style="fill:#407BFF"></polygon><polygon points="326.04 304.46 375.76 333.17 381.28 329.98 331.56 301.27 326.04 304.46" style="fill:#fff;opacity:0.5"></polygon><polygon points="326.04 304.46 323.28 312.44 373 341.14 375.76 333.17 326.04 304.46" style="fill:#407BFF"></polygon><polygon points="326.04 304.46 323.28 312.44 373 341.14 375.76 333.17 326.04 304.46" style="fill:#fff;opacity:0.30000000000000004"></polygon><polygon points="330.31 310.12 329.38 312.81 346.13 322.48 347.06 319.79 330.31 310.12" style="fill:#fafafa"></polygon><polygon points="352.23 322.77 351.3 325.46 368.05 335.13 368.98 332.44 352.23 322.77" style="fill:#fafafa"></polygon></g></g><g id="freepik--Signals--inject-2"><g id="freepik--Signal--inject-2"><polygon points="270.32 149.34 270.32 272.29 271.64 271.53 271.64 148.56 270.32 149.34" style="fill:#263238"></polygon><polygon points="268.21 148.11 268.21 271.08 270.32 272.29 270.32 149.34 268.21 148.11" style="fill:#37474f"></polygon><polygon points="268.21 148.11 270.32 149.34 271.64 148.56 269.53 147.35 268.21 148.11" style="fill:#455a64"></polygon><path d="M280.15,158.83l-20.85-12a1,1,0,0,0-1-.09l-1.12.65a1,1,0,0,0-.4.9v30.14a3.08,3.08,0,0,0,1.4,2.42l20.84,12a1,1,0,0,0,1,.09l1.14-.65a1,1,0,0,0,.39-.9V161.26A3.11,3.11,0,0,0,280.15,158.83Z" style="fill:#407BFF"></path><path d="M280.15,158.83l-20.85-12a1,1,0,0,0-1-.09l-1.12.65a1,1,0,0,0-.4.9v30.14a3.08,3.08,0,0,0,1.4,2.42l20.84,12a1,1,0,0,0,1,.09l1.14-.65a1,1,0,0,0,.39-.9V161.26A3.11,3.11,0,0,0,280.15,158.83Z" style="fill:#fff;opacity:0.7000000000000001"></path><path d="M280,192.94c.19-.11.94-.53,1.14-.66a1,1,0,0,0,.39-.89V161.26a2.69,2.69,0,0,0-.28-1.12L279,161.43v31.42h0A1,1,0,0,0,280,192.94Z" style="fill:#407BFF"></path><path d="M280,192.94c.19-.11.94-.53,1.14-.66a1,1,0,0,0,.39-.89V161.26a2.69,2.69,0,0,0-.28-1.12L279,161.43v31.42h0A1,1,0,0,0,280,192.94Z" style="opacity:0.25"></path><path d="M279,159.48l-20.84-12c-.78-.45-1.4-.08-1.4.81v30.14a3.08,3.08,0,0,0,1.4,2.42l20.84,12c.77.44,1.4.08,1.4-.81V161.9A3.09,3.09,0,0,0,279,159.48Z" style="fill:#407BFF"></path><path d="M258.79,150.1,278,161.21a1.25,1.25,0,0,1,.4.69v28.29l-19.24-11.11a1.19,1.19,0,0,1-.4-.69V150.1m-.5-.87v29.16a1.65,1.65,0,0,0,.65,1.12l20,11.54V161.9a1.65,1.65,0,0,0-.65-1.13l-20-11.54Z" style="fill:#fff"></path><path d="M267.52,179.26c-2.09-1.21-3.79-4.81-3.79-8a4.51,4.51,0,0,1,1.32-3.67l-.16-2.51c-1.52.51-2.54,2.47-2.54,5.39,0,4.39,2.32,9.31,5.17,10.95a2.89,2.89,0,0,0,4.33-1.1l-.69-3.07C270.68,179.33,269.23,180.25,267.52,179.26Zm8.6,1.73c-.16-.62-.57-1.08-.91-1l-1.33.2-1.65-7.36a1.58,1.58,0,0,0-.65-1l-4.28-2.48-.13-2.06,3.31,1.92c.38.22.69-.07.69-.65a1.8,1.8,0,0,0-.69-1.45l-3.45-2-.21-3.32c.68.19,1.2-.44,1.2-1.56a4,4,0,0,0-1.49-3.15c-.82-.47-1.49.17-1.49,1.43a4.57,4.57,0,0,0,.34,1.67l.33,5.14v.07a1.53,1.53,0,0,0,0,.3l.25,4a1.67,1.67,0,0,0,.69,1.3l4.44,2.56,1.75,7.86a2.27,2.27,0,0,0,.39.86,1,1,0,0,0,.25.22.51.51,0,0,0,.3.07l2-.3C276.14,182.16,276.29,181.62,276.12,181Z" style="fill:#fff"></path></g><g id="freepik--signal--inject-2"><polygon points="351.57 196.24 351.57 319.19 352.89 318.43 352.89 195.46 351.57 196.24" style="fill:#263238"></polygon><polygon points="349.47 195 349.47 317.97 351.57 319.19 351.57 196.24 349.47 195" style="fill:#37474f"></polygon><polygon points="349.47 195 351.57 196.24 352.89 195.46 350.78 194.25 349.47 195" style="fill:#455a64"></polygon><path d="M361.4,205.73l-20.84-12a1,1,0,0,0-1-.09c-.19.12-.92.53-1.11.64a1,1,0,0,0-.41.91v30.13a3.08,3.08,0,0,0,1.4,2.43l20.84,12a1,1,0,0,0,1,.1c.2-.11.94-.53,1.14-.66a1,1,0,0,0,.39-.89V208.15A3.09,3.09,0,0,0,361.4,205.73Z" style="fill:#407BFF"></path><path d="M361.4,205.73l-20.84-12a1,1,0,0,0-1-.09c-.19.12-.92.53-1.11.64a1,1,0,0,0-.41.91v30.13a3.08,3.08,0,0,0,1.4,2.43l20.84,12a1,1,0,0,0,1,.1c.2-.11.94-.53,1.14-.66a1,1,0,0,0,.39-.89V208.15A3.09,3.09,0,0,0,361.4,205.73Z" style="fill:#fff;opacity:0.7000000000000001"></path><path d="M361.27,239.84c.2-.11.94-.53,1.14-.66a1,1,0,0,0,.39-.89V208.15a2.61,2.61,0,0,0-.28-1.12l-2.24,1.3v31.41h0A1,1,0,0,0,361.27,239.84Z" style="fill:#407BFF"></path><path d="M361.27,239.84c.2-.11.94-.53,1.14-.66a1,1,0,0,0,.39-.89V208.15a2.61,2.61,0,0,0-.28-1.12l-2.24,1.3v31.41h0A1,1,0,0,0,361.27,239.84Z" style="opacity:0.25"></path><path d="M360.28,206.37l-20.84-12c-.78-.45-1.4-.09-1.4.81v30.13a3.08,3.08,0,0,0,1.4,2.43l20.84,12c.78.45,1.4.09,1.4-.8V208.8A3.1,3.1,0,0,0,360.28,206.37Z" style="fill:#407BFF"></path><path d="M340,197l19.24,11.12a1.16,1.16,0,0,1,.4.69v28.29L340.44,226a1.18,1.18,0,0,1-.4-.7V197m-.5-.86v29.15a1.65,1.65,0,0,0,.65,1.13l20,11.54V208.8a1.65,1.65,0,0,0-.65-1.13l-20-11.54Z" style="fill:#fff"></path><path d="M348.77,226.16c-2.09-1.21-3.79-4.82-3.79-8,0-1.77.51-3.06,1.33-3.67l-.16-2.51c-1.53.5-2.55,2.47-2.55,5.39,0,4.39,2.32,9.3,5.17,10.95a2.9,2.9,0,0,0,4.33-1.1l-.69-3.07C351.93,226.23,350.48,227.15,348.77,226.16Zm8.61,1.73c-.17-.62-.58-1.09-.92-1l-1.32.2-1.66-7.36a1.61,1.61,0,0,0-.64-1l-4.29-2.48-.13-2.06,3.31,1.91c.38.22.69-.06.69-.65a1.79,1.79,0,0,0-.69-1.44l-3.45-2-.21-3.32c.69.18,1.2-.45,1.2-1.56a3.92,3.92,0,0,0-1.49-3.15c-.82-.48-1.49.17-1.49,1.43a4.42,4.42,0,0,0,.35,1.67l.33,5.14a.17.17,0,0,0,0,.07,1.53,1.53,0,0,0,0,.3l.25,4a1.72,1.72,0,0,0,.69,1.31l4.44,2.56,1.76,7.85a2.23,2.23,0,0,0,.38.87,1,1,0,0,0,.26.22.46.46,0,0,0,.29.07l2-.3C357.39,229.06,357.54,228.51,357.38,227.89Z" style="fill:#fff"></path></g><g id="freepik--signal--inject-2"><polygon points="193.1 104.75 193.1 227.71 194.42 226.95 194.42 103.98 193.1 104.75" style="fill:#263238"></polygon><polygon points="190.99 103.52 190.99 226.49 193.1 227.71 193.1 104.75 190.99 103.52" style="fill:#37474f"></polygon><polygon points="190.99 103.52 193.1 104.75 194.42 103.98 192.31 102.76 190.99 103.52" style="fill:#455a64"></polygon><path d="M202.93,114.25l-20.85-12a1,1,0,0,0-1-.09l-1.12.64a1,1,0,0,0-.41.91V133.8a3.11,3.11,0,0,0,1.4,2.43l20.85,12a1,1,0,0,0,1,.1l1.14-.66a1,1,0,0,0,.39-.89V116.67A3.09,3.09,0,0,0,202.93,114.25Z" style="fill:#407BFF"></path><path d="M202.93,114.25l-20.85-12a1,1,0,0,0-1-.09l-1.12.64a1,1,0,0,0-.41.91V133.8a3.11,3.11,0,0,0,1.4,2.43l20.85,12a1,1,0,0,0,1,.1l1.14-.66a1,1,0,0,0,.39-.89V116.67A3.09,3.09,0,0,0,202.93,114.25Z" style="fill:#fff;opacity:0.7000000000000001"></path><path d="M202.8,148.36l1.14-.66a1,1,0,0,0,.39-.89V116.67a2.76,2.76,0,0,0-.28-1.12l-2.24,1.3v31.41h0A1,1,0,0,0,202.8,148.36Z" style="fill:#407BFF"></path><path d="M202.8,148.36l1.14-.66a1,1,0,0,0,.39-.89V116.67a2.76,2.76,0,0,0-.28-1.12l-2.24,1.3v31.41h0A1,1,0,0,0,202.8,148.36Z" style="opacity:0.25"></path><path d="M201.81,114.89l-20.85-12c-.77-.45-1.4-.09-1.4.81V133.8a3.11,3.11,0,0,0,1.4,2.43l20.85,12c.77.45,1.4.09,1.4-.81V117.32A3.11,3.11,0,0,0,201.81,114.89Z" style="fill:#407BFF"></path><path d="M181.56,105.51l19.25,11.11a1.27,1.27,0,0,1,.4.7V145.6L182,134.5a1.27,1.27,0,0,1-.4-.7V105.51m-.5-.86V133.8a1.65,1.65,0,0,0,.65,1.13l20,11.54V117.32a1.65,1.65,0,0,0-.65-1.13l-20-11.54Z" style="fill:#fff"></path><path d="M195.09,119.93a12.22,12.22,0,0,1,1.3,5.66,9.44,9.44,0,0,1-.45,3.08,2.65,2.65,0,0,1-1.46,1.71,3,3,0,0,1-2.61-.51l-1.82-1.05v6.3l-2.55-1.47v-19.9l3.92,2.26A9.28,9.28,0,0,1,195.09,119.93ZM193,126.22a1.45,1.45,0,0,0,.63-.81,3.6,3.6,0,0,0,.19-1.18,7.21,7.21,0,0,0-.4-2.28,3.35,3.35,0,0,0-1.57-1.89L190.05,119v6l1.81,1A1.15,1.15,0,0,0,193,126.22Z" style="fill:#fff"></path></g></g><g id="freepik--car-1--inject-2"><g id="freepik--Car--inject-2"><path d="M184.6,274.76a3.35,3.35,0,0,0,2.16-3,4.4,4.4,0,0,0-2.22-4.66,4.71,4.71,0,0,0-4.91-.6Z" style="fill:#455a64"></path><path d="M183.66,274.94a2.44,2.44,0,0,1-1-.4L180.26,273a3.84,3.84,0,0,1-1.64-3.31l.2-1.82a1.56,1.56,0,0,1,1.76-1.48,2.33,2.33,0,0,1,1,.4l2.36,1.57a3.81,3.81,0,0,1,1.64,3.3l-.2,1.82A1.55,1.55,0,0,1,183.66,274.94Z" style="fill:#263238"></path><path d="M181.22,267.24l2.36,1.57a3.25,3.25,0,0,1,1.37,2.75l-.2,1.82c-.1.94-.88,1.25-1.74.67l-2.36-1.57a3.24,3.24,0,0,1-1.37-2.74l.2-1.82C179.59,267,180.37,266.67,181.22,267.24Z" style="fill:#455a64"></path><g style="opacity:0.2"><path d="M181.93,267.71l-2.63,1.9.22-2.11.75-.54a1.41,1.41,0,0,1,1,.28Z" style="fill:#fff"></path><path d="M184,269.13,180.06,272a3.89,3.89,0,0,1-.28-.39h0l3.79-2.73A1.9,1.9,0,0,1,184,269.13Z" style="fill:#fff"></path><path d="M184.94,271.56l0,.31-2.48,1.8-1.09-.73,3.45-2.49A2.43,2.43,0,0,1,184.94,271.56Z" style="fill:#fff"></path></g><polygon points="191.88 342.9 174.36 332.79 186.04 326.05 203.55 336.16 191.88 342.9" style="fill:#fafafa"></polygon><polygon points="191.88 342.9 174.36 332.79 186.04 326.05 203.55 336.16 191.88 342.9" style="opacity:0.30000000000000004"></polygon><polygon points="250.1 309.34 232.59 299.23 235.43 295.68 252.94 305.8 250.1 309.34" style="fill:#fafafa"></polygon><polygon points="250.1 309.34 232.59 299.23 235.43 295.68 252.94 305.8 250.1 309.34" style="opacity:0.30000000000000004"></polygon><path d="M185.88,343.8l2-4-4.77-2.76h0c-1.51-.87-3.53-.77-5.75.51-4.7,2.72-8.52,9.73-8.52,15.66,0,3.1,1,5.29,2.72,6.29h0l.07,0h0l4.88,2.82,2.11-4.19A20.37,20.37,0,0,0,185.88,343.8Z" style="fill:#37474f"></path><path d="M185.88,343.8l2-4-4.77-2.76h0c-1.51-.87-3.53-.77-5.75.51-4.7,2.72-8.52,9.73-8.52,15.66,0,3.1,1,5.29,2.72,6.29h0l.07,0h0l4.88,2.82,2.11-4.19A20.37,20.37,0,0,0,185.88,343.8Z"></path><path d="M190.84,346.25a20.41,20.41,0,0,1-6.63,14.3h0a12.17,12.17,0,0,1-1.87,1.34c-4.71,2.72-8.52.12-8.52-5.81a20.62,20.62,0,0,1,5.27-13l0,0a13.69,13.69,0,0,1,3.22-2.66C187,337.72,190.84,340.32,190.84,346.25Z" style="fill:#263238"></path><path d="M182.32,344c3-1.73,5.43.07,5.43,4s-2.43,8.56-5.43,10.29-5.42-.08-5.42-4S179.33,345.74,182.32,344Z" style="fill:#37474f"></path><path d="M184.77,350.07c-.2,2-1.47,4.05-2.82,4.66a1.32,1.32,0,0,1-1.48-.13,2.71,2.71,0,0,1-.6-2.34c.21-2,1.47-4.05,2.82-4.65a1.52,1.52,0,0,1,1-.13h0C184.47,347.67,184.92,348.64,184.77,350.07Z" style="fill:#455a64"></path><path d="M190.84,346.25a20.41,20.41,0,0,1-6.63,14.3,24.13,24.13,0,0,0,5.4-10.46c.72-3.42.45-8.33-2.48-9.57s-6.81,1.38-8,2.57a13.69,13.69,0,0,1,3.22-2.66C187,337.72,190.84,340.32,190.84,346.25Z" style="fill:#455a64"></path><path d="M244.1,310.24l2-4-4.77-2.76h0c-1.52-.87-3.53-.77-5.75.51-4.71,2.72-8.52,9.73-8.52,15.66,0,3.1,1,5.29,2.72,6.29h0l.06,0h0l4.89,2.82,2.11-4.19A20.32,20.32,0,0,0,244.1,310.24Z" style="fill:#37474f"></path><path d="M244.1,310.24l2-4-4.77-2.76h0c-1.52-.87-3.53-.77-5.75.51-4.71,2.72-8.52,9.73-8.52,15.66,0,3.1,1,5.29,2.72,6.29h0l.06,0h0l4.89,2.82,2.11-4.19A20.32,20.32,0,0,0,244.1,310.24Z"></path><path d="M249.07,312.69a20.44,20.44,0,0,1-6.64,14.3h0a12.17,12.17,0,0,1-1.87,1.34c-4.71,2.72-8.53.12-8.52-5.81a20.57,20.57,0,0,1,5.27-13l0,0a13.69,13.69,0,0,1,3.22-2.66C245.26,304.16,249.07,306.76,249.07,312.69Z" style="fill:#263238"></path><path d="M240.55,310.45c3-1.73,5.42.07,5.42,4s-2.43,8.55-5.42,10.28-5.43-.07-5.43-4S237.55,312.18,240.55,310.45Z" style="fill:#37474f"></path><path d="M243,316.51c-.21,2-1.47,4.05-2.82,4.66a1.33,1.33,0,0,1-1.48-.13,2.69,2.69,0,0,1-.6-2.34c.2-2,1.47-4.05,2.82-4.65a1.5,1.5,0,0,1,1-.13h0C242.69,314.11,243.15,315.08,243,316.51Z" style="fill:#455a64"></path><path d="M249.07,312.69a20.44,20.44,0,0,1-6.64,14.3,24.14,24.14,0,0,0,5.41-10.46c.72-3.42.45-8.33-2.48-9.57s-6.81,1.38-8,2.57a13.69,13.69,0,0,1,3.22-2.66C245.26,304.16,249.07,306.76,249.07,312.69Z" style="fill:#455a64"></path><path d="M258.06,293.38v5.68c0,3.15-2.79,7.3-6.22,9.28l-1.74,1c-1-4.92-4.89-6.77-9.56-4.08a15.59,15.59,0,0,0-3.71,3.05l0,0a24.38,24.38,0,0,0-5.82,12L191.87,342.9c-1-4.92-4.88-6.77-9.56-4.09a16.64,16.64,0,0,0-3.7,3.07l0,0a24.32,24.32,0,0,0-5.82,12l-3.86,2.22c-3.43,2-6.63,2.13-12.44,0S134.84,345.32,128,339.75c-4.45-3.59-6.22-6.61-6.22-10.34v-6.74c0-.33,0-.67,0-1s0-.63.06-.95a28.13,28.13,0,0,1,.5-4,16.46,16.46,0,0,1,.38-1.75,36.47,36.47,0,0,1,4.41-10.83c4.2-6.62,5.81-8.13,10-10.58L151,299.09l54.5-31.42c7.49-4.33,27.51-3,39.13,4.38S258.06,285.69,258.06,293.38Z" style="fill:#fff"></path><path d="M258.06,293.38v5.68c0,3.15-2.79,7.3-6.22,9.28l-1.74,1c-1-4.92-4.89-6.77-9.56-4.08a15.59,15.59,0,0,0-3.71,3.05l0,0a24.38,24.38,0,0,0-5.82,12L191.87,342.9c-1-4.92-4.88-6.77-9.56-4.09a16.64,16.64,0,0,0-3.7,3.07l0,0a24.32,24.32,0,0,0-5.82,12l-3.86,2.22c-3.43,2-6.63,2.13-12.44,0S134.84,345.32,128,339.75c-4.45-3.59-6.22-6.61-6.22-10.34v-6.74c0-.33,0-.67,0-1s0-.63.06-.95a28.13,28.13,0,0,1,.5-4,16.46,16.46,0,0,1,.38-1.75,36.47,36.47,0,0,1,4.41-10.83c4.2-6.62,5.81-8.13,10-10.58L151,299.09l44.72-25.78c4.56-2.63,36,21.07,37.87,20.53,10.54-3.11,18.43-8.24,19.74-14.62C257.26,283.8,258.06,288.28,258.06,293.38Z" style="opacity:0.15"></path><path d="M174.88,312.22,137,293.7c-4,2.36-5.69,3.94-9.8,10.43A36.47,36.47,0,0,0,122.77,315a16.46,16.46,0,0,0-.38,1.75,28.13,28.13,0,0,0-.5,4c0,.32,0,.64-.06.95s0,.66,0,1v6.74c0,3.73,1.77,6.75,6.22,10.34,6.8,5.57,22.61,14.29,28.42,16.41,3.82,1.4,6.51,1.8,8.88,1.36-.94-2.46-.09-7.63,1.2-17.67C168.18,327.06,170.36,317.28,174.88,312.22Z" style="opacity:0.15"></path><path d="M232.75,294.44c2.23-1.32,3.24-3.24,2.36-5.31l-23.75-4.59,0,6.75Z" style="fill:#263238"></path><path d="M182.16,269.77h23.36c3.75,0,10.25,2.18,18.38,7.51s16.79,12.35,9.7,16.56Z" style="fill:#263238"></path><path d="M183,270.52H206.3c3.65,0,10.89,3.89,16.73,7.26s14.77,11.7,11.68,13.48c-1.14.66-3.85.33-11.68-.65l-10-1.24Z" style="fill:#455a64"></path><path d="M233.47,286.55A43,43,0,0,0,223,277.78c-5.84-3.37-13.08-7.26-16.73-7.26H183l10.82,6.77L196.6,276c-3.54-2.06,6.4-3.1,12.05-2.33S229.32,281.31,233.47,286.55Z" style="fill:#fff;opacity:0.2"></path><path d="M176.87,315.43a39.79,39.79,0,0,0-.16,6.92c.08,2.3,1.83,3.33,3.9,2.14l52.14-30.05c2.06-1.19,1.82-2.39-.54-2.69l-13.57-1.69a15,15,0,0,0-8,1.62l-30,17.28C178.54,310.15,177.21,312.16,176.87,315.43Z" style="fill:#263238"></path><path d="M178,315.11a28.67,28.67,0,0,0-.24,7c.16,1.33,1.35,1.83,2.73,1l48.4-27.9c1.38-.79,1.21-1.59-.36-1.79l-11.81-1.5a10,10,0,0,0-5.34,1.08l-30.9,17.8C179.09,311.59,178.41,312.47,178,315.11Z" style="fill:#37474f"></path><polygon points="199.49 298.35 199.49 313.29 200.47 312.73 200.47 297.78 199.49 298.35" style="fill:#263238"></polygon><polygon points="217.19 290.91 217.19 303.05 218.18 302.48 218.18 290.34 217.19 290.91" style="fill:#263238"></polygon><path d="M164.79,313.78a8.26,8.26,0,0,0,7.47,0L211,291.49c3.44-2,3.44-5.21,0-7.19l-22.58-13a13.79,13.79,0,0,0-12.45,0l-38.71,22.3c-2.07,1.19-2.07,3.12,0,4.31Z" style="fill:#fff"></path><path d="M167,310.28c-6.29-2.89-10.68-5.26-15.87-10.06s-2.15-11.14,10.39-20.71l-24.32,14.05c-2.07,1.19-2.07,3.12,0,4.31l27.56,15.91a8.26,8.26,0,0,0,7.47,0l12.86-7.42C185,306.4,173.29,313.16,167,310.28Z" style="opacity:0.15"></path><path d="M211,284.3l-22.58-13a13.67,13.67,0,0,0-8.47-1.3,10.74,10.74,0,0,1,5.16,1.08c2.92,1.26,11.37,6.26,20.9,11.52s5.79,7.19,3.17,8.7-32.75,20.13-36.89,22.52L211,291.49C214.41,289.5,214.41,286.28,211,284.3Z" style="fill:#fff;opacity:0.30000000000000004"></path><path d="M134.13,337.43v-5.11c0-.64.45-.9,1-.58l8.69,5a1.75,1.75,0,0,1,.79,1.36v5.05c0,.63-.45.89-1,.58l-8.69-5A1.71,1.71,0,0,1,134.13,337.43Z" style="fill:#37474f"></path><path d="M135.76,326.16v-.67c0-.79.56-1.11,1.25-.72l8,4.62a2.72,2.72,0,0,1,1.24,2.15v.61c0,.79-.56,1.12-1.24.72l-8-4.56A2.72,2.72,0,0,1,135.76,326.16Z" style="fill:#fafafa"></path><path d="M135.76,326.16v-.67c0-.79.56-1.11,1.25-.72l8,4.62a2.72,2.72,0,0,1,1.24,2.15v.61c0,.79-.56,1.12-1.24.72l-8-4.56A2.72,2.72,0,0,1,135.76,326.16Z" style="fill:#fff;opacity:0.2"></path><path d="M159.08,335.54a5.7,5.7,0,0,0-4.44,4c-.7,2.93.37,5.39,2.79,6,1,.27,3.59-.15,5.6-3.05,1.38-2,1.56-5.13.8-6.13S161,335,159.08,335.54Z" style="fill:#37474f"></path><path d="M160,338.84a1.92,1.92,0,1,1-1.92-1.92A1.92,1.92,0,0,1,160,338.84Z" style="fill:#fafafa"></path><path d="M158.47,342.74a1.14,1.14,0,1,1-1.14-1.14A1.14,1.14,0,0,1,158.47,342.74Z" style="fill:#fafafa"></path><path d="M124.12,325.39c-.39.58-1.28.56-2.3-.68v-2c0-.33,0-.67,0-1s0-.63.06-.95a28.13,28.13,0,0,1,.5-4,16.46,16.46,0,0,1,.38-1.75,6,6,0,0,1,1.88,3.63C124.84,320.93,124.65,324.66,124.12,325.39Z" style="fill:#37474f"></path><path d="M122.5,321.65a1,1,0,0,0-.67.26c0,.26,0,.5,0,.76v.77a1,1,0,0,0,.68.27,1,1,0,0,0,0-2.06Z" style="fill:#fafafa"></path><path d="M123.87,318.68a2,2,0,0,1-2,2.05,28.13,28.13,0,0,1,.5-4A2.06,2.06,0,0,1,123.87,318.68Z" style="fill:#fafafa"></path><path d="M249.86,275.82c4.45,5.66-8.63,14.82-14.52,18.16s-42.75,24.72-42.75,24.72,45.48-24.07,56.48-28.09c7.27-2.66,9,6.4,9,8.45h0v-5.67C258.07,287,256.82,281.64,249.86,275.82Z" style="fill:#fafafa"></path><path d="M249.86,275.82c4.45,5.66-8.63,14.82-14.52,18.16s-42.75,24.72-42.75,24.72,45.48-24.07,56.48-28.09c7.27-2.66,9,6.4,9,8.45h0v-5.67C258.07,287,256.82,281.64,249.86,275.82Z" style="fill:#fff;opacity:0.1"></path><path d="M177.65,339.46a19.3,19.3,0,0,1,3.8-3.47,12.59,12.59,0,0,1,4.75-2,8.22,8.22,0,0,1,2.62,0,6.35,6.35,0,0,1,2.39,1.06,7.9,7.9,0,0,1,2.79,4.26,8.4,8.4,0,0,0-2.95-4,6.61,6.61,0,0,0-2.29-1,8.06,8.06,0,0,0-2.5,0,12.77,12.77,0,0,0-4.66,1.89A23,23,0,0,0,177.65,339.46Z" style="fill:#fafafa"></path><path d="M235.69,305.94a19.24,19.24,0,0,1,3.79-3.47,12.71,12.71,0,0,1,4.76-2,8.23,8.23,0,0,1,2.62,0,6.35,6.35,0,0,1,2.39,1.06,7.89,7.89,0,0,1,2.78,4.26,8.39,8.39,0,0,0-2.94-4,6.85,6.85,0,0,0-2.3-1,8,8,0,0,0-2.49,0,12.7,12.7,0,0,0-4.66,1.89A22.72,22.72,0,0,0,235.69,305.94Z" style="fill:#fafafa"></path><path d="M195.42,338.43q8.09-5.18,16.38-10c2.76-1.62,5.52-3.24,8.31-4.79s5.56-3.16,8.38-4.67l-.19.3a20.15,20.15,0,0,1,1.46-5.37,14,14,0,0,1,3.05-4.57,15.42,15.42,0,0,0-2.62,4.74,21.31,21.31,0,0,0-1.13,5.26l0,.19-.17.11c-2.72,1.68-5.5,3.27-8.25,4.89s-5.53,3.2-8.32,4.77Q204,334.06,195.42,338.43Z" style="opacity:0.2"></path><path d="M254.76,281.06c.9,2.45-1.47,6.06-1.09,9.52s3.12,3.71,4.29,0C258.49,286.66,255.64,281.6,254.76,281.06Z" style="fill:#407BFF"></path><path d="M254.76,281.06c.9,2.45-1.47,6.06-1.09,9.52s3.12,3.71,4.29,0C258.49,286.66,255.64,281.6,254.76,281.06Z" style="fill:#fff;opacity:0.7000000000000001"></path><path d="M126,309.44a48.77,48.77,0,0,1,6.86-9.74,3.47,3.47,0,0,1,4.38-.34A184.06,184.06,0,0,0,166,315.93a2.75,2.75,0,0,1,1.29,3.75,59.32,59.32,0,0,0-3.89,11.5,2.4,2.4,0,0,1-3.31,1.76,123.94,123.94,0,0,1-33.22-19.09A3.68,3.68,0,0,1,126,309.44Z" style="fill:#263238"></path><path d="M161,332.13a1.59,1.59,0,0,1-.59-.12,123.45,123.45,0,0,1-33-18.94,2.67,2.67,0,0,1-.61-3.14,47.43,47.43,0,0,1,6.71-9.55,2.22,2.22,0,0,1,1.62-.63,2.48,2.48,0,0,1,1.44.43,187.4,187.4,0,0,0,28.9,16.66,1.65,1.65,0,0,1,.9,1,1.82,1.82,0,0,1-.09,1.44,60.42,60.42,0,0,0-4,11.69A1.42,1.42,0,0,1,161,332.13Z" style="fill:#455a64"></path><path d="M166.43,317.81a1.65,1.65,0,0,0-.9-1,188,188,0,0,1-25.05-14l-13.87,8a2.69,2.69,0,0,0,.86,2.25,123.45,123.45,0,0,0,33,18.94,1.59,1.59,0,0,0,.59.12,1.42,1.42,0,0,0,1.36-1.19,60.42,60.42,0,0,1,4-11.69A1.82,1.82,0,0,0,166.43,317.81Z" style="fill:#37474f"></path><path d="M121.1,329.41c.41,1.94,6.74,8.12,17.21,13.94s19.25,10.55,24.55,10.29,12-4.72,12-4.72a31.94,31.94,0,0,0-1.36,5.72s-5.52,3.48-10.08,3.83c-3,.22-6.94.81-25.27-9.77-12.16-7-15.87-10.87-17.25-13.95a12.65,12.65,0,0,1-.65-4.89c.07-3.47,1.55-3.81,1.55-3.81C121.15,326.69,120.68,327.48,121.1,329.41Z" style="fill:#fafafa"></path><path d="M121.1,329.41c.41,1.94,6.74,8.12,17.21,13.94s19.25,10.55,24.55,10.29,12-4.72,12-4.72a31.94,31.94,0,0,0-1.36,5.72s-5.52,3.48-10.08,3.83c-3,.22-6.94.81-25.27-9.77-12.16-7-15.87-10.87-17.25-13.95a12.65,12.65,0,0,1-.65-4.89c.07-3.47,1.55-3.81,1.55-3.81C121.15,326.69,120.68,327.48,121.1,329.41Z" style="opacity:0.30000000000000004"></path><path d="M121.82,326.05c-.67.64-1.14,1.43-.72,3.36s6.74,8.12,17.21,13.94,19.25,10.55,24.55,10.29,12-4.72,12-4.72l-.6-.34s-6.82,4.33-11.44,4.27S152,350.47,139,342.9s-16.52-12.16-17.12-13.77Z" style="fill:#fafafa"></path><path d="M232.31,302.33a3.35,3.35,0,0,0,2.16-3,4.4,4.4,0,0,0-2.22-4.66,4.71,4.71,0,0,0-4.91-.6Z" style="fill:#455a64"></path><path d="M231.37,302.5a2.3,2.3,0,0,1-1-.39L228,300.53a3.81,3.81,0,0,1-1.64-3.3l.2-1.82a1.57,1.57,0,0,1,1.76-1.49,2.45,2.45,0,0,1,1,.4l2.36,1.57a3.84,3.84,0,0,1,1.64,3.31l-.2,1.82A1.55,1.55,0,0,1,231.37,302.5Z" style="fill:#263238"></path><path d="M228.93,294.81l2.36,1.57a3.24,3.24,0,0,1,1.37,2.74l-.2,1.82c-.1.95-.88,1.25-1.74.68l-2.36-1.57A3.25,3.25,0,0,1,227,297.3l.2-1.82C227.3,294.54,228.08,294.24,228.93,294.81Z" style="fill:#455a64"></path><g style="opacity:0.2"><path d="M229.64,295.28,227,297.17l.22-2.1.75-.54a1.41,1.41,0,0,1,1,.28Z" style="fill:#fff"></path><path d="M231.68,296.7l-3.91,2.82c-.1-.12-.19-.26-.28-.39h0l3.79-2.74A2.37,2.37,0,0,1,231.68,296.7Z" style="fill:#fff"></path><path d="M232.65,299.13l0,.31-2.48,1.79-1.09-.72L232.5,298A2.43,2.43,0,0,1,232.65,299.13Z" style="fill:#fff"></path></g><g style="opacity:0.2"><path d="M175.46,319.61c.14,3,.16,6.05.37,9.06a13,13,0,0,0,.88,4.37,1.92,1.92,0,0,0,1.56,1.26,5.5,5.5,0,0,0,2.1-.57,32.69,32.69,0,0,1,4.35-1.35,10.74,10.74,0,0,1,4.55-.16,6.22,6.22,0,0,1,3.77,2.47,13,13,0,0,1,1.81,4.15,13,13,0,0,0-1.95-4,6.06,6.06,0,0,0-3.68-2.34,10.53,10.53,0,0,0-4.43.23,32,32,0,0,0-4.29,1.39c-.36.12-.69.28-1.08.38-.19.05-.38.12-.57.15l-.61,0a2.22,2.22,0,0,1-1.79-1.46,13.1,13.1,0,0,1-.86-4.48C175.39,325.66,175.46,322.64,175.46,319.61Z"></path></g><g style="opacity:0.2"><path d="M200.65,313.38c.15,3.69.16,7.37.18,11.06l0,5.53c0,1.84-.07,3.69-.14,5.53-.07-1.84-.11-3.69-.14-5.53l0-5.53C200.49,320.75,200.5,317.07,200.65,313.38Z"></path></g><g style="opacity:0.2"><path d="M225.59,299.05c.15,3.67.16,7.35.18,11l0,5.51c0,1.84-.07,3.67-.14,5.51-.06-1.84-.11-3.67-.13-5.51l-.05-5.51C225.44,306.4,225.45,302.72,225.59,299.05Z"></path></g><path d="M183.22,325.34l3.41-1.95c.69-.39,1.25-.33,1.25.13a2.36,2.36,0,0,1-1.25,1.56L183.22,327c-.69.4-1.25.34-1.25-.13A2.34,2.34,0,0,1,183.22,325.34Z" style="fill:#37474f"></path><path d="M203.63,313.52l3.41-1.94c.69-.4,1.25-.34,1.25.13a2.34,2.34,0,0,1-1.25,1.55l-3.41,1.95c-.69.39-1.25.33-1.25-.13A2.36,2.36,0,0,1,203.63,313.52Z" style="fill:#37474f"></path></g></g><g id="freepik--Keys--inject-2"><g id="freepik--keys--inject-2"><path d="M113.77,377.45c0-2.22-2.8-3.9-6.68-4a567.36,567.36,0,0,0-65.37,2.71c-4.12.41-7.49,2.52-7.78,4.89l-2.4,19.3c0,.11,0,.22,0,.33V408c0,2.21,2.8,3.9,6.66,4a568.42,568.42,0,0,0,65.37-2.71c4.13-.41,7.5-2.52,7.8-4.9l2.4-19.29a1.94,1.94,0,0,0,0-.34Zm-9.08,11.2a1.6,1.6,0,0,1,.89-1.09,4.27,4.27,0,0,1,1.9-.52,3.45,3.45,0,0,1,1.66.3l-.83,6.63a1.6,1.6,0,0,1-.89,1.09,4.27,4.27,0,0,1-1.9.52,3.43,3.43,0,0,1-1.65-.3Z" style="fill:#263238"></path><path d="M107.09,373.48a567.36,567.36,0,0,0-65.37,2.71c-4.12.41-7.49,2.52-7.78,4.89l-2.4,19.3c-.3,2.38,2.58,4.23,6.64,4.3A566.2,566.2,0,0,0,103.55,402c4.13-.4,7.5-2.52,7.8-4.89l2.4-19.29C114,375.4,111.16,373.55,107.09,373.48ZM108.31,394a1.6,1.6,0,0,1-.89,1.09,4.27,4.27,0,0,1-1.9.52c-1.45.06-2.53-.56-2.43-1.39l1.6-12.81a1.63,1.63,0,0,1,.89-1.1,4.27,4.27,0,0,1,1.9-.52c1.45-.06,2.53.57,2.43,1.4Z" style="fill:#37474f"></path><path d="M57.08,377c0-.37-.5-.63-1.15-.58q-7,.51-14,1.21c-.35,0-.64.2-.66.4l-2.4,19.3v2.8c0,.18.24.31.57.32q6.87.12,13.84.05c.66,0,1.26-.34,1.31-.72l2.48-20V377Z" style="fill:#263238"></path><path d="M54.6,397l2.48-20c.05-.38-.48-.67-1.15-.62q-7,.51-14,1.21c-.35,0-.64.2-.66.4l-2.4,19.3c0,.19.22.34.57.35q6.87.12,13.84,0C54,397.7,54.55,397.37,54.6,397Z" style="fill:#455a64"></path><path d="M101.89,375.53c0-.34-.38-.62-1-.62q-7.51-.06-15,.09c-.66,0-1.25.34-1.29.72L82,396v2.81c0,.36.49.63,1.13.59q7.58-.48,15.18-1.16c.61-.06,1.11-.37,1.15-.72l2.39-19.23C101.91,378.12,101.89,375.53,101.89,375.53Z" style="fill:#263238"></path><path d="M84.57,375.72,82,396c0,.38.47.67,1.13.63q7.58-.48,15.18-1.16c.61-.06,1.11-.37,1.15-.72l2.39-19.23c0-.34-.38-.62-1-.62q-7.51-.06-15,.09C85.2,375,84.61,375.34,84.57,375.72Z" style="fill:#455a64"></path><path d="M81.73,375.75v0c0-.35-.45-.6-1.06-.58-6.5.19-13,.49-19.52.91-.63,0-1.16.36-1.2.72L57.43,397v.05c0,.16,0,2.75,0,2.77,0,.33.44.59,1,.58q9.69-.18,19.5-.71c.63,0,1.18-.35,1.22-.72l2.55-20.47v-2.77Z" style="fill:#263238"></path><path d="M60,376.76,57.43,397c0,.36.41.64,1,.63q9.69-.18,19.5-.71c.63,0,1.18-.35,1.22-.72l2.55-20.47c0-.36-.43-.64-1.06-.62-6.5.19-13,.49-19.52.91C60.52,376.08,60,376.4,60,376.76Z" style="fill:#455a64"></path><path d="M90.36,385a1.61,1.61,0,0,0-.74.23l-1.84.07-.09.73,1.84-.08a1.14,1.14,0,0,0,.69.17c.53,0,1-.29,1-.6S90.89,385,90.36,385Zm-.11.9a.66.66,0,0,1-.46-.13l-.05,0-1.65.07,0-.3,1.66-.07.06,0a.83.83,0,0,1,.49-.17c.33,0,.58.13.56.32S90.58,385.91,90.25,385.92Zm3-1.2-.16-1c0-.13-.21-.22-.45-.21l-5.82.24c-.27,0-.51.14-.53.3l-.41,3.33c0,.16.19.28.46.26l5.81-.24a.6.6,0,0,0,.52-.25l.4-1A2.73,2.73,0,0,0,93.21,384.72Zm-.54,1.46-.4,1a.16.16,0,0,1-.13.06l-5.82.24c-.07,0-.12,0-.11-.06l.41-3.33a.14.14,0,0,1,.14-.08l5.81-.24a.11.11,0,0,1,.12.05l.15,1a2.35,2.35,0,0,1,0,.7A2.67,2.67,0,0,1,92.67,386.18ZM94,384l-.74,0,0,.22.75,0c1.19-.05,2.09.47,2,1.15s-1.12,1.29-2.31,1.34l-.75,0,0,.22.75,0c1.4-.06,2.61-.77,2.71-1.57S95.41,383.91,94,384Z" style="fill:#fafafa"></path><path d="M46.66,386.84a1.5,1.5,0,0,0-.74.22l-1.84.07-.09.73,1.84-.08a1.14,1.14,0,0,0,.69.17c.54,0,1-.29,1-.6S47.19,386.81,46.66,386.84Zm-.11.9a.74.74,0,0,1-.46-.13l-.05-.05-1.65.07,0-.3,1.66-.07.06,0a.84.84,0,0,1,.5-.17c.32,0,.57.13.55.32S46.88,387.72,46.55,387.74Zm3-1.2-.16-1c0-.13-.21-.22-.45-.21l-5.82.24c-.27,0-.5.15-.52.3l-.42,3.33c0,.16.19.28.46.27l5.81-.25a.6.6,0,0,0,.52-.25l.4-1A2.6,2.6,0,0,0,49.51,386.54ZM49,388l-.4,1s-.07.06-.13.06l-5.81.24c-.07,0-.13,0-.12-.06l.41-3.33a.14.14,0,0,1,.14-.08l5.81-.24c.06,0,.11,0,.12.05l.16,1a2.34,2.34,0,0,1,0,.7A2.61,2.61,0,0,1,49,388Zm4.61-1.34-.49-.29-.28.17.49.28c.79.45.69,1.24-.21,1.76a3.39,3.39,0,0,1-3.06.13l-.49-.28-.28.16.49.28a4,4,0,0,0,3.58-.15C54.39,388.1,54.5,387.18,53.58,386.65Z" style="fill:#fafafa"></path><path d="M73.36,381.73c-.1,0-.19,0-.2.11h0l-.08.85-1.47,1-.13-.07a.56.56,0,0,1-.25-.26l-.32-.91a1.21,1.21,0,0,0-1.16-.55,2.35,2.35,0,0,0-1.1.26.89.89,0,0,0-.54.62v.11c-.76.13-1.34.52-1.39,1s.42.79,1.16.86l-.46,3.71c-.76.13-1.33.52-1.39,1s.43.79,1.16.86l0,.27c0,.3.36.53.9.51l.53,0a1.84,1.84,0,0,0,1.44-.65l.85-1.43a.68.68,0,0,1,.2-.22l1.39-1a.87.87,0,0,0,.35-.48l.4-2.23a.57.57,0,0,0-.35-.59l-1-.56,1.54-1a.1.1,0,0,0,.06-.07h0l.08-.88C73.54,381.77,73.46,381.72,73.36,381.73ZM72.85,385l-.41,2.23a.58.58,0,0,1-.26.36l-1.39,1a1,1,0,0,0-.27.28l-.85,1.43a1.33,1.33,0,0,1-1.06.49l-.54,0c-.33,0-.58-.13-.55-.32l0-.35c0-.05-.06-.1-.15-.1-.64,0-1.07-.31-1-.67s.55-.69,1.2-.77c.1,0,.17-.06.18-.11l.48-3.88s-.06-.09-.15-.1c-.64,0-1.07-.31-1-.67s.55-.69,1.2-.77c.09,0,.17-.06.17-.11l0-.2a.68.68,0,0,1,.39-.46,1.87,1.87,0,0,1,.82-.19.9.9,0,0,1,.86.41l.32.91a.68.68,0,0,0,.34.35l1.37.77A.45.45,0,0,1,72.85,385Z" style="fill:#fafafa"></path><path d="M152.48,416.2a4.14,4.14,0,0,0-2-3.33,91,91,0,0,0-12.75-7.4c-4.15-2-10.74-1.55-15,1.06L108.89,415c-3.85,2.36-5.82,5.3-5.81,8.1,0,1.23,0,6,0,7.29,0,2.35,1.39,4.59,4.23,6.29.51.31,1,.61,1.57.91,6.44,3.59,17.44,3.18,25-.92l14.62-8c2.67-1.45,4.07-3.39,4-5.22C152.46,422.24,152.5,417.51,152.48,416.2Zm-8,4.13-.92.5a3.75,3.75,0,0,0-.58-1.45C143.51,419.69,144,420,144.5,420.33Z" style="fill:#37474f"></path><path d="M122.71,406.53,108.89,415c-7.1,4.34-7.82,10.69-1.59,14.41.51.31,1,.61,1.57.91,6.44,3.59,17.44,3.18,25-.92l14.62-8c4.44-2.41,5.38-6.19,2-8.54a91,91,0,0,0-12.75-7.4C133.57,403.48,127,403.92,122.71,406.53Zm3,1.61a10.28,10.28,0,0,1,8.91-.62c2.13,1,4.23,2.13,6.22,3.27s4.14,2.52,6.06,3.86,1.42,3.59-1.22,5l-2.1,1.15a4.37,4.37,0,0,0-2-2.85,90,90,0,0,0-12.75-7.39,13.69,13.69,0,0,0-5.17-1.22Z" style="fill:#455a64"></path><ellipse cx="111.89" cy="421.53" rx="2" ry="1.15" style="fill:#37474f"></ellipse><path d="M118.07,423.47a.86.86,0,0,1,0,1.63,3.14,3.14,0,0,1-2.83,0,.86.86,0,0,1,0-1.63A3.14,3.14,0,0,1,118.07,423.47Z" style="fill:#37474f"></path><path d="M122.84,426.23a.86.86,0,0,1,0,1.63,3.14,3.14,0,0,1-2.83,0,.86.86,0,0,1,0-1.63A3.14,3.14,0,0,1,122.84,426.23Z" style="fill:#37474f"></path><path d="M119.49,417.15a.86.86,0,0,1,0,1.63,3.14,3.14,0,0,1-2.83,0,.86.86,0,0,1,0-1.63A3.14,3.14,0,0,1,119.49,417.15Z" style="fill:#37474f"></path><path d="M124.26,419.9a.86.86,0,0,1,0,1.63,3.14,3.14,0,0,1-2.83,0,.86.86,0,0,1,0-1.63A3.14,3.14,0,0,1,124.26,419.9Z" style="fill:#37474f"></path><ellipse cx="127.62" cy="423.47" rx="2" ry="1.15" style="fill:#37474f"></ellipse><path d="M125.68,413.58a.86.86,0,0,1,0,1.63,3.14,3.14,0,0,1-2.83,0,.86.86,0,0,1,0-1.63A3.14,3.14,0,0,1,125.68,413.58Z" style="fill:#37474f"></path><path d="M130.45,416.33a.86.86,0,0,1,0,1.63,3.07,3.07,0,0,1-2.83,0,.86.86,0,0,1,0-1.63A3.14,3.14,0,0,1,130.45,416.33Z" style="fill:#37474f"></path><path d="M135.22,419.09a.86.86,0,0,1,0,1.63,3.14,3.14,0,0,1-2.83,0,.86.86,0,0,1,0-1.63A3.14,3.14,0,0,1,135.22,419.09Z" style="fill:#37474f"></path><polygon points="112.97 435.1 105.92 431.03 89.35 440.6 88.59 442.85 83.84 444.38 81.81 446.92 79.36 447.76 78.65 449.04 77.34 449.09 76.58 449.93 73.18 451.05 71.65 454.89 71.65 458.16 78.3 457.28 80.23 455.31 81.69 454.88 81.78 454.12 83.99 453.71 85.46 452.3 89.85 451.12 92.5 448.38 96.4 447.94 112.97 438.37 112.97 435.1" style="fill:#e0e0e0"></polygon><polygon points="105.92 431.03 112.97 435.1 96.4 444.67 92.5 445.11 89.85 447.85 85.46 449.02 83.99 450.44 81.78 450.85 81.69 451.6 80.23 452.04 78.3 454 71.65 454.89 73.18 451.05 76.58 449.93 77.34 449.09 78.65 449.04 79.36 447.76 81.81 446.92 83.84 444.38 88.59 442.85 89.35 440.6 105.92 431.03" style="fill:#f5f5f5"></polygon><polygon points="78.3 454 78.3 457.28 80.23 455.31 80.23 452.04 78.3 454" style="opacity:0.1"></polygon><polygon points="81.69 451.6 81.69 454.88 81.78 454.12 81.78 450.85 81.69 451.6" style="opacity:0.1"></polygon><polygon points="83.99 450.44 85.46 449.02 85.46 452.3 83.99 453.71 83.99 450.44" style="opacity:0.1"></polygon><polygon points="92.5 445.11 92.5 448.38 89.85 451.12 89.85 447.85 92.5 445.11" style="opacity:0.1"></polygon><polyline points="96.4 444.67 96.4 447.94 112.97 438.37 112.97 435.1 96.47 444.73" style="opacity:0.1"></polyline><polygon points="103.25 436.21 104.28 436.8 76.7 452.73 75.67 452.13 103.25 436.21" style="opacity:0.1"></polygon><polygon points="76.11 452.39 76.7 452.73 103.83 437.06 103.25 436.73 76.11 452.39" style="opacity:0.1"></polygon><polygon points="103.25 436.73 103.25 436.21 104.28 436.8 103.83 437.06 103.25 436.73" style="opacity:0.2"></polygon><path d="M119.8,379.89a10.7,10.7,0,0,0-6-1.53h-.09a7.33,7.33,0,0,0-3,1,7.13,7.13,0,0,0-1.23.89,9.68,9.68,0,0,0-2.32,3.25,14.87,14.87,0,0,0-1.11,3.89,21.65,21.65,0,0,0-.2,2.74,26.18,26.18,0,0,0,.55,5.37l.07,0,.22-.06.39-.13.4-.2a1.27,1.27,0,0,0,.27-.18,1.66,1.66,0,0,0,.54-.63,23.35,23.35,0,0,1-.35-4.13,18.12,18.12,0,0,1,.27-3.05,10.66,10.66,0,0,1,1.52-4,6.11,6.11,0,0,1,2-1.94,5.23,5.23,0,0,1,1.72-.63l.36-.05a8.43,8.43,0,0,1,5,1.25c6.49,3.65,11.72,13.64,11.65,22.26,0,.1,0,.2,0,.3a18.15,18.15,0,0,1-.23,2.54,11.5,11.5,0,0,1-1.29,3.79l1.85.92a13.62,13.62,0,0,0,1.53-4.65,18.12,18.12,0,0,0,.22-2.61,2.44,2.44,0,0,0,0-.27C132.59,394.69,126.89,383.88,119.8,379.89Zm-8.35,23.61-.1.84a3.55,3.55,0,0,1-.78,1.73,27.4,27.4,0,0,0,4.22,5.3l1.83-1.12A25.38,25.38,0,0,1,111.45,403.5Z" style="fill:#e0e0e0"></path><g style="opacity:0.2"><path d="M119.8,379.89a10.7,10.7,0,0,0-6-1.53h-.09a7.33,7.33,0,0,0-3,1,7.13,7.13,0,0,0-1.23.89,9.68,9.68,0,0,0-2.32,3.25,14.87,14.87,0,0,0-1.11,3.89,21.65,21.65,0,0,0-.2,2.74,26.18,26.18,0,0,0,.55,5.37l.07,0,.22-.06.39-.13.4-.2a1.27,1.27,0,0,0,.27-.18,1.66,1.66,0,0,0,.54-.63,23.35,23.35,0,0,1-.35-4.13,18.12,18.12,0,0,1,.27-3.05,10.66,10.66,0,0,1,1.52-4,6.11,6.11,0,0,1,2-1.94,5.23,5.23,0,0,1,1.72-.63l.36-.05a8.43,8.43,0,0,1,5,1.25c6.49,3.65,11.72,13.64,11.65,22.26,0,.1,0,.2,0,.3a18.15,18.15,0,0,1-.23,2.54,11.5,11.5,0,0,1-1.29,3.79l1.85.92a13.62,13.62,0,0,0,1.53-4.65,18.12,18.12,0,0,0,.22-2.61,2.44,2.44,0,0,0,0-.27C132.59,394.69,126.89,383.88,119.8,379.89Zm-8.35,23.61-.1.84a3.55,3.55,0,0,1-.78,1.73,27.4,27.4,0,0,0,4.22,5.3l1.83-1.12A25.38,25.38,0,0,1,111.45,403.5Z"></path></g></g></g><g id="freepik--Cones--inject-2"><g id="freepik--Cone--inject-2"><path d="M353.85,447.42l14.82-8.56a2.18,2.18,0,0,1,2,0l14.82,8.56a.68.68,0,0,1,.41.57v1.08a.69.69,0,0,1-.41.58l-14.82,8.55a2.18,2.18,0,0,1-2,0l-14.82-8.55a.69.69,0,0,1-.41-.58V448A.68.68,0,0,1,353.85,447.42Z" style="fill:#407BFF"></path><path d="M353.44,448v1.08a.69.69,0,0,0,.41.58l14.82,8.55a2,2,0,0,0,1,.24V438.62a2,2,0,0,0-1,.24l-14.82,8.56A.68.68,0,0,0,353.44,448Z" style="opacity:0.1"></path><path d="M369.66,438.62v19.82a2,2,0,0,0,1-.24l14.82-8.55a.69.69,0,0,0,.41-.58V448a.68.68,0,0,0-.41-.57l-14.82-8.56A2,2,0,0,0,369.66,438.62Z" style="opacity:0.30000000000000004"></path><path d="M370.66,457.12l14.82-8.55a.61.61,0,0,0,0-1.15l-14.82-8.56a2.18,2.18,0,0,0-2,0l-14.82,8.56a.61.61,0,0,0,0,1.15l14.82,8.55A2.18,2.18,0,0,0,370.66,457.12Z" style="fill:#407BFF"></path><path d="M370.66,457.12l14.82-8.55a.61.61,0,0,0,0-1.15l-14.82-8.56a2.18,2.18,0,0,0-2,0l-14.82,8.56a.61.61,0,0,0,0,1.15l14.82,8.55A2.18,2.18,0,0,0,370.66,457.12Z" style="fill:#fff;opacity:0.5"></path><path d="M369.66,438.62a2,2,0,0,1,1,.24l14.82,8.56a.61.61,0,0,1,0,1.15l-14.82,8.55a2,2,0,0,1-1,.24Z" style="opacity:0.05"></path><path d="M360.52,446.91h0l6.56-19.7h0v0h0a1.57,1.57,0,0,1,.72-.76,4.09,4.09,0,0,1,3.73,0,1.57,1.57,0,0,1,.72.76h0v0h0l6.56,19.7h0c.61,1.72-.24,3.57-2.54,4.9a14.64,14.64,0,0,1-13.21,0C360.76,450.48,359.91,448.63,360.52,446.91Z" style="fill:#407BFF"></path><path d="M360.52,446.91h0l6.56-19.7h0v0h0a1.57,1.57,0,0,1,.72-.76,4.09,4.09,0,0,1,3.73,0,1.57,1.57,0,0,1,.72.76h0v0h0l6.56,19.7h0c.61,1.72-.24,3.57-2.54,4.9a14.64,14.64,0,0,1-13.21,0C360.76,450.48,359.91,448.63,360.52,446.91Z" style="opacity:0.1"></path><path d="M365.19,432.86v0l.93-2.8a1.34,1.34,0,0,0,.41,1.41,2.54,2.54,0,0,0,.58.45,5.63,5.63,0,0,0,5.09,0,2.78,2.78,0,0,0,.58-.45,1.35,1.35,0,0,0,.41-1.41l.93,2.8v0a1.63,1.63,0,0,1-.21,1.41,2.92,2.92,0,0,1-1,.94,5.17,5.17,0,0,1-1.13.47,7.65,7.65,0,0,1-4.19,0,5.17,5.17,0,0,1-1.13-.47,2.92,2.92,0,0,1-1-.94A1.63,1.63,0,0,1,365.19,432.86Z" style="fill:#fafafa"></path><path d="M361.43,444.15v0l.93-2.8a2.51,2.51,0,0,0-.05,1.41,3.18,3.18,0,0,0,.79,1.41,5.55,5.55,0,0,0,1.3,1,11.65,11.65,0,0,0,10.51,0,5.55,5.55,0,0,0,1.3-1,3.18,3.18,0,0,0,.79-1.41,2.6,2.6,0,0,0-.05-1.41l.93,2.8v0a2.83,2.83,0,0,1,.1,1.41,4.48,4.48,0,0,1-2.41,2.93,13.09,13.09,0,0,1-11.85,0,4.48,4.48,0,0,1-2.41-2.93A2.83,2.83,0,0,1,361.43,444.15Z" style="fill:#fafafa"></path><path d="M363.31,438.51v0l.93-2.81a1.92,1.92,0,0,0,.09,1.41,3.27,3.27,0,0,0,1.38,1.42l0,0a8.56,8.56,0,0,0,7.79,0l.05,0a3.27,3.27,0,0,0,1.38-1.42,1.92,1.92,0,0,0,.09-1.41l.93,2.81v0a2.27,2.27,0,0,1,0,1.41,3.19,3.19,0,0,1-1,1.41,5.49,5.49,0,0,1-.75.52,8.09,8.09,0,0,1-2.49.89,10.84,10.84,0,0,1-4.17,0,8.09,8.09,0,0,1-2.49-.89,5.49,5.49,0,0,1-.75-.52,3.19,3.19,0,0,1-1-1.41A2.27,2.27,0,0,1,363.31,438.51Z" style="fill:#fafafa"></path><path d="M369.66,426a3.78,3.78,0,0,1,1.87.45,1.57,1.57,0,0,1,.72.76h0v0h0l6.56,19.7h0c.61,1.72-.24,3.57-2.54,4.9a13.52,13.52,0,0,1-6.61,1.58h.06a5.55,5.55,0,0,0,4.54-6.27l-2.73-19.61Z" style="opacity:0.1"></path><path d="M371.53,428.58a1.14,1.14,0,0,0,0-2.16,4.09,4.09,0,0,0-3.73,0,1.14,1.14,0,0,0,0,2.16A4.15,4.15,0,0,0,371.53,428.58Z" style="fill:#407BFF"></path></g><g id="freepik--cone--inject-2"><path d="M394.69,441.44l14.82-8.56a2.2,2.2,0,0,1,2,0l14.81,8.56a.69.69,0,0,1,.41.57v1.08a.69.69,0,0,1-.41.58l-14.81,8.55a2.2,2.2,0,0,1-2,0l-14.82-8.55a.71.71,0,0,1-.41-.58V442A.71.71,0,0,1,394.69,441.44Z" style="fill:#407BFF"></path><path d="M394.28,442v1.08a.71.71,0,0,0,.41.58l14.82,8.55a2.05,2.05,0,0,0,1,.24V432.64a2.05,2.05,0,0,0-1,.24l-14.82,8.56A.71.71,0,0,0,394.28,442Z" style="opacity:0.1"></path><path d="M410.51,432.64v19.82a2.05,2.05,0,0,0,1-.24l14.81-8.55a.69.69,0,0,0,.41-.58V442a.69.69,0,0,0-.41-.57l-14.81-8.56A2.05,2.05,0,0,0,410.51,432.64Z" style="opacity:0.30000000000000004"></path><path d="M411.5,451.15l14.83-8.56a.61.61,0,0,0,0-1.15l-14.83-8.56a2.18,2.18,0,0,0-2,0l-14.82,8.56a.61.61,0,0,0,0,1.15l14.82,8.56A2.25,2.25,0,0,0,411.5,451.15Z" style="fill:#407BFF"></path><path d="M411.5,451.15l14.83-8.56a.61.61,0,0,0,0-1.15l-14.83-8.56a2.18,2.18,0,0,0-2,0l-14.82,8.56a.61.61,0,0,0,0,1.15l14.82,8.56A2.25,2.25,0,0,0,411.5,451.15Z" style="fill:#fff;opacity:0.5"></path><path d="M410.51,432.64a2,2,0,0,1,1,.24l14.83,8.56a.61.61,0,0,1,0,1.15l-14.83,8.56a2.1,2.1,0,0,1-1,.23Z" style="opacity:0.05"></path><path d="M401.36,440.93h0l6.55-19.7h0v0h0a1.5,1.5,0,0,1,.71-.76,4.11,4.11,0,0,1,3.74,0,1.54,1.54,0,0,1,.71.76h0v0h0l6.56,19.7h0c.6,1.72-.24,3.57-2.55,4.9a14.64,14.64,0,0,1-13.21,0C401.6,444.5,400.76,442.65,401.36,440.93Z" style="fill:#407BFF"></path><path d="M401.36,440.93h0l6.55-19.7h0v0h0a1.5,1.5,0,0,1,.71-.76,4.11,4.11,0,0,1,3.74,0,1.54,1.54,0,0,1,.71.76h0v0h0l6.56,19.7h0c.6,1.72-.24,3.57-2.55,4.9a14.64,14.64,0,0,1-13.21,0C401.6,444.5,400.76,442.65,401.36,440.93Z" style="opacity:0.1"></path><path d="M406,426.88v0l.93-2.8a1.38,1.38,0,0,0,.41,1.41,3.06,3.06,0,0,0,.58.45,5.63,5.63,0,0,0,5.09,0,2.85,2.85,0,0,0,.59-.45,1.36,1.36,0,0,0,.4-1.41l.94,2.8v0a1.59,1.59,0,0,1-.2,1.41,3,3,0,0,1-1,.94,5.17,5.17,0,0,1-1.13.47,7.61,7.61,0,0,1-4.18,0,5,5,0,0,1-1.13-.47,3,3,0,0,1-1.05-.94A1.63,1.63,0,0,1,406,426.88Z" style="fill:#fafafa"></path><path d="M402.28,438.17v0l.94-2.8a2.51,2.51,0,0,0-.06,1.41,3.18,3.18,0,0,0,.79,1.41,5.41,5.41,0,0,0,1.31,1,11.63,11.63,0,0,0,10.5,0,5.35,5.35,0,0,0,1.3-1,3,3,0,0,0,.79-1.41,2.42,2.42,0,0,0-.05-1.41l.93,2.8v0a2.83,2.83,0,0,1,.11,1.41,4.54,4.54,0,0,1-2.41,2.93,13.11,13.11,0,0,1-11.86,0,4.48,4.48,0,0,1-2.41-2.93A2.83,2.83,0,0,1,402.28,438.17Z" style="fill:#fafafa"></path><path d="M404.15,432.53v0l.93-2.81a1.92,1.92,0,0,0,.09,1.41,3.35,3.35,0,0,0,1.39,1.42l0,0a8.58,8.58,0,0,0,7.8,0l0,0a3.27,3.27,0,0,0,1.38-1.42,1.87,1.87,0,0,0,.09-1.41l.94,2.81v0a2.13,2.13,0,0,1,0,1.41,3.19,3.19,0,0,1-1,1.41,4.93,4.93,0,0,1-.75.52,8,8,0,0,1-2.48.89,10.89,10.89,0,0,1-4.18,0,8.18,8.18,0,0,1-2.49-.89,5.49,5.49,0,0,1-.75-.52,3.16,3.16,0,0,1-1-1.41A2.2,2.2,0,0,1,404.15,432.53Z" style="fill:#fafafa"></path><path d="M410.51,420a3.83,3.83,0,0,1,1.87.45,1.54,1.54,0,0,1,.71.76h0v0h0l6.56,19.7h0c.6,1.72-.24,3.57-2.55,4.9a13.51,13.51,0,0,1-6.6,1.58h.05a5.55,5.55,0,0,0,4.54-6.27l-2.72-19.61Z" style="opacity:0.1"></path><path d="M412.38,422.6a1.14,1.14,0,0,0,0-2.16,4.11,4.11,0,0,0-3.74,0,1.14,1.14,0,0,0,0,2.16A4.17,4.17,0,0,0,412.38,422.6Z" style="fill:#407BFF"></path></g><g id="freepik--cone--inject-2"><path d="M169.28,448.86l14.82-8.56a2.05,2.05,0,0,1,1-.24,2,2,0,0,1,1,.24l14.82,8.56a.69.69,0,0,1,.41.57v1.08a.69.69,0,0,1-.41.58l-14.82,8.55a2,2,0,0,1-1,.24,2.05,2.05,0,0,1-1-.24l-14.82-8.55a.69.69,0,0,1-.41-.58v-1.08A.69.69,0,0,1,169.28,448.86Z" style="fill:#407BFF"></path><path d="M168.87,449.43v1.08a.69.69,0,0,0,.41.58l14.82,8.55a2.05,2.05,0,0,0,1,.24V440.06a2.05,2.05,0,0,0-1,.24l-14.82,8.56A.69.69,0,0,0,168.87,449.43Z" style="opacity:0.1"></path><path d="M185.1,440.06v19.82a2,2,0,0,0,1-.24l14.82-8.55a.69.69,0,0,0,.41-.58v-1.08a.69.69,0,0,0-.41-.57l-14.82-8.56A2,2,0,0,0,185.1,440.06Z" style="opacity:0.30000000000000004"></path><path d="M186.09,458.57,200.92,450a.61.61,0,0,0,0-1.15l-14.83-8.56a2.18,2.18,0,0,0-2,0l-14.82,8.56a.61.61,0,0,0,0,1.15l14.82,8.56A2.25,2.25,0,0,0,186.09,458.57Z" style="fill:#407BFF"></path><path d="M186.09,458.57,200.92,450a.61.61,0,0,0,0-1.15l-14.83-8.56a2.18,2.18,0,0,0-2,0l-14.82,8.56a.61.61,0,0,0,0,1.15l14.82,8.56A2.25,2.25,0,0,0,186.09,458.57Z" style="fill:#fff;opacity:0.5"></path><path d="M185.1,440.06a2,2,0,0,1,1,.24l14.83,8.56a.61.61,0,0,1,0,1.15l-14.83,8.56a2,2,0,0,1-1,.23Z" style="opacity:0.05"></path><path d="M176,448.36h0l6.56-19.71h0v0h0a1.54,1.54,0,0,1,.71-.76,4.17,4.17,0,0,1,3.74,0,1.58,1.58,0,0,1,.71.76h0v0h0l6.56,19.71h0c.6,1.71-.25,3.56-2.55,4.89a14.64,14.64,0,0,1-13.21,0C176.19,451.92,175.34,450.07,176,448.36Z" style="fill:#407BFF"></path><path d="M176,448.36h0l6.56-19.71h0v0h0a1.54,1.54,0,0,1,.71-.76,4.17,4.17,0,0,1,3.74,0,1.58,1.58,0,0,1,.71.76h0v0h0l6.56,19.71h0c.6,1.71-.25,3.56-2.55,4.89a14.64,14.64,0,0,1-13.21,0C176.19,451.92,175.34,450.07,176,448.36Z" style="opacity:0.1"></path><path d="M180.62,434.3v0l.93-2.8a1.36,1.36,0,0,0,.41,1.41,2.78,2.78,0,0,0,.58.45,5.63,5.63,0,0,0,5.09,0,2.85,2.85,0,0,0,.59-.45,1.36,1.36,0,0,0,.4-1.41l.94,2.81h0a1.59,1.59,0,0,1-.2,1.41,3.17,3.17,0,0,1-1.05,1,5.69,5.69,0,0,1-1.13.46,7.61,7.61,0,0,1-4.18,0,5.24,5.24,0,0,1-1.13-.46,3.07,3.07,0,0,1-1-1A1.63,1.63,0,0,1,180.62,434.3Z" style="fill:#fafafa"></path><path d="M176.86,445.59v0l.93-2.8a2.6,2.6,0,0,0-.05,1.41,3.18,3.18,0,0,0,.79,1.41,5.41,5.41,0,0,0,1.31,1,11.57,11.57,0,0,0,10.5,0,5.35,5.35,0,0,0,1.3-1,3.18,3.18,0,0,0,.79-1.41,2.51,2.51,0,0,0-.05-1.41l.93,2.8v0a2.82,2.82,0,0,1,.1,1.41,4.5,4.5,0,0,1-2.4,2.92,13.11,13.11,0,0,1-11.86,0,4.49,4.49,0,0,1-2.41-2.92A3,3,0,0,1,176.86,445.59Z" style="fill:#fafafa"></path><path d="M178.74,440v0l.93-2.8a1.89,1.89,0,0,0,.09,1.4,3.35,3.35,0,0,0,1.39,1.42l0,0a8.58,8.58,0,0,0,7.8,0l0,0a3.27,3.27,0,0,0,1.38-1.42,1.87,1.87,0,0,0,.09-1.41l.93,2.81v0a2.13,2.13,0,0,1,0,1.41,3.19,3.19,0,0,1-1,1.41,4.93,4.93,0,0,1-.75.52,8.12,8.12,0,0,1-2.48.89,10.89,10.89,0,0,1-4.18,0,8.18,8.18,0,0,1-2.49-.89,5.49,5.49,0,0,1-.75-.52,3.16,3.16,0,0,1-1-1.41A2.2,2.2,0,0,1,178.74,440Z" style="fill:#fafafa"></path><path d="M185.1,427.41a3.83,3.83,0,0,1,1.87.45,1.58,1.58,0,0,1,.71.76h0v0h0l6.56,19.71h0c.6,1.71-.25,3.56-2.55,4.89a13.51,13.51,0,0,1-6.6,1.58h.05a5.55,5.55,0,0,0,4.54-6.27L187,428.94Z" style="opacity:0.1"></path><path d="M187,430a1.14,1.14,0,0,0,0-2.16,4.17,4.17,0,0,0-3.74,0,1.14,1.14,0,0,0,0,2.16A4.17,4.17,0,0,0,187,430Z" style="fill:#407BFF"></path></g></g><g id="freepik--Barrier--inject-2"><g id="freepik--barrier--inject-2"><polygon points="433.21 402.86 455.2 390.16 474.05 401.05 452.06 413.74 433.21 402.86" style="fill:#455a64"></polygon><polygon points="433.21 402.86 433.21 406.49 452.06 417.37 452.06 413.74 433.21 402.86" style="fill:#263238"></polygon><polygon points="474.05 401.05 474.04 404.67 452.06 417.37 452.06 413.74 474.05 401.05" style="fill:#37474f"></polygon><path d="M454.22,327.83a2.36,2.36,0,0,0-2.37.23l-9,5.2a7.41,7.41,0,0,0-3.35,5.8v63.8l12.57,7.25,15.7-9.07V337.25a2.36,2.36,0,0,0-1-2.16Z" style="fill:#407BFF"></path><path d="M453,343a6.79,6.79,0,0,0-1,3.3v63.79l-12.57-7.25v-63.8a6.73,6.73,0,0,1,1-3.3Z" style="opacity:0.2"></path><path d="M452.06,346.32a7.41,7.41,0,0,1,3.34-5.8l9-5.2c1.85-1.07,3.35-.2,3.35,1.93V401l-15.7,9.07Z" style="fill:#407BFF"></path><path d="M466.74,335.06a2.36,2.36,0,0,0-2.32.26l-9,5.2A6.78,6.78,0,0,0,453,343l-12.56-7.25a6.86,6.86,0,0,1,2.36-2.5l9-5.19a2.34,2.34,0,0,1,2.37-.24Z" style="fill:#fff;opacity:0.4"></path><polygon points="455.2 347.89 464.62 342.45 464.62 349.71 455.2 355.15 455.2 347.89" style="fill:#455a64"></polygon><polygon points="463.71 349.18 464.62 349.71 464.62 342.45 463.71 342.98 463.71 349.18" style="fill:#37474f"></polygon><polygon points="463.71 349.18 463.71 342.98 455.2 347.89 455.2 354.09 463.71 349.18" style="fill:#407BFF"></polygon><polygon points="463.71 349.18 463.71 342.98 455.2 347.89 455.2 354.09 463.71 349.18" style="opacity:0.4"></polygon><path d="M455.2,359.16a.39.39,0,0,1-.34-.19.4.4,0,0,1,.14-.53l9.43-5.44a.38.38,0,0,1,.53.14.39.39,0,0,1-.15.53l-9.42,5.44A.45.45,0,0,1,455.2,359.16Z" style="fill:#455a64"></path><path d="M455.2,362.79a.38.38,0,0,1-.34-.2.39.39,0,0,1,.14-.52l9.43-5.45a.39.39,0,0,1,.38.68l-9.42,5.44A.45.45,0,0,1,455.2,362.79Z" style="fill:#455a64"></path><path d="M455.2,366.41a.37.37,0,0,1-.34-.19.4.4,0,0,1,.14-.53l9.43-5.44a.4.4,0,0,1,.53.14.39.39,0,0,1-.15.53l-9.42,5.44A.34.34,0,0,1,455.2,366.41Z" style="fill:#455a64"></path><polygon points="316.66 430.42 434.46 362.42 434.46 352.61 316.66 420.62 316.66 430.42" style="fill:#f5f5f5"></polygon><polygon points="313.52 418.8 313.52 428.61 316.66 430.42 316.66 420.62 313.52 418.8" style="fill:#407BFF"></polygon><polygon points="313.52 418.8 313.52 428.61 316.66 430.42 316.66 420.62 313.52 418.8" style="opacity:0.2"></polygon><polygon points="434.46 352.61 431.32 350.8 313.52 418.8 316.66 420.62 434.46 352.61" style="fill:#fafafa"></polygon><polygon points="327.66 410.64 330.8 412.46 340.22 407.02 337.08 405.2 327.66 410.64" style="fill:#407BFF"></polygon><polygon points="316.66 420.62 321.37 417.9 318.23 416.08 313.52 418.8 316.66 420.62" style="fill:#407BFF"></polygon><polygon points="346.5 399.76 349.64 401.57 359.07 396.13 355.93 394.32 346.5 399.76" style="fill:#407BFF"></polygon><polygon points="365.35 388.88 368.49 390.69 377.92 385.25 374.77 383.44 365.35 388.88" style="fill:#407BFF"></polygon><polygon points="384.2 378 387.34 379.81 396.76 374.37 393.62 372.56 384.2 378" style="fill:#407BFF"></polygon><polygon points="403.05 367.12 406.19 368.93 415.61 363.49 412.47 361.68 403.05 367.12" style="fill:#407BFF"></polygon><polygon points="421.89 356.24 425.03 358.05 434.46 352.61 431.32 350.8 421.89 356.24" style="fill:#407BFF"></polygon><g style="opacity:0.4"><polygon points="327.66 410.64 330.8 412.46 340.22 407.02 337.08 405.2 327.66 410.64" style="fill:#fff"></polygon><polygon points="316.66 420.62 321.37 417.9 318.23 416.08 313.52 418.8 316.66 420.62" style="fill:#fff"></polygon><polygon points="346.5 399.76 349.64 401.57 359.07 396.13 355.93 394.32 346.5 399.76" style="fill:#fff"></polygon><polygon points="365.35 388.88 368.49 390.69 377.92 385.25 374.77 383.44 365.35 388.88" style="fill:#fff"></polygon><polygon points="384.2 378 387.34 379.81 396.76 374.37 393.62 372.56 384.2 378" style="fill:#fff"></polygon><polygon points="403.05 367.12 406.19 368.93 415.61 363.49 412.47 361.68 403.05 367.12" style="fill:#fff"></polygon><polygon points="421.89 356.24 425.03 358.05 434.46 352.61 431.32 350.8 421.89 356.24" style="fill:#fff"></polygon></g><polygon points="396.76 374.37 388.48 379.15 387.34 379.81 381.06 393.25 390.48 387.81 396.76 374.37" style="fill:#407BFF"></polygon><polygon points="359.07 396.13 349.64 401.57 343.37 415.01 352.79 409.57 359.07 396.13" style="fill:#407BFF"></polygon><polygon points="333.94 420.45 340.22 407.02 332.54 411.45 330.8 412.46 324.52 425.89 333.94 420.45" style="fill:#407BFF"></polygon><polygon points="377.92 385.25 368.75 390.55 368.49 390.69 362.21 404.13 371.64 398.69 377.92 385.25" style="fill:#407BFF"></polygon><polygon points="409.33 376.93 415.61 363.49 408.6 367.54 406.19 368.93 399.91 382.37 409.33 376.93" style="fill:#407BFF"></polygon><polygon points="321.37 417.9 316.66 420.62 316.66 426.35 321.37 417.9" style="fill:#407BFF"></polygon><polygon points="432.9 353.51 425.03 358.05 418.75 371.49 428.18 366.05 434.46 352.61 432.9 353.51" style="fill:#407BFF"></polygon><polygon points="434.46 359.87 447.84 352.13 447.84 344.88 434.46 352.61 434.46 359.87" style="fill:#37474f"></polygon><polygon points="447.84 344.88 444.7 343.06 431.32 350.8 434.46 352.61 447.84 344.88" style="fill:#455a64"></polygon></g></g></svg>